<svg width="18" height="18" viewBox="0 0 18 18" fill="none" xmlns="http://www.w3.org/2000/svg">
  <path d="M12.1537 6.23975H12.1508V6.24264H12.1537V6.23975Z" fill="#7FA768"/>
  <path d="M12.1508 6.6795V16.9335H15.8716C16.43 16.9335 16.8843 16.485 16.8843 15.9324V11.7862V6.70265L12.1508 6.6795Z" fill="#6AAA64"/>
  <path d="M16.7194 2.22087V5.83175L12.1566 5.81149L12.1768 1.24292H15.7414C16.2796 1.24292 16.7194 1.68271 16.7194 2.22087Z" fill="white"/>
  <path d="M11.5432 11.9251V16.9277H6.5869V11.902L11.5432 11.9251Z" fill="#6AAA64"/>
  <path d="M11.6126 6.35839L11.5866 11.5461L6.40463 11.5172L6.42778 6.33813L11.6126 6.35839Z" fill="#D1B036"/>
  <path d="M11.3088 1.24292L11.2886 5.80571L6.72 5.78835V1.24292H11.3088Z" fill="white"/>
  <path d="M6.22234 11.876V16.9538H2.22375C1.62773 16.9538 1.14165 16.4677 1.14165 15.8717V11.876H6.22234Z" fill="#6AAA64"/>
  <path d="M5.8491 6.6795L5.82596 11.2423H1.2487V6.6795H5.8491Z" fill="white"/>
  <path d="M5.852 1.24292V5.81149H1.2487V2.22087C1.2487 1.68271 1.68849 1.24292 2.22954 1.24292H5.852Z" fill="white"/>
  <path d="M15.7559 0.395203H2.24401C1.22556 0.395203 0.395172 1.2227 0.395172 2.24115V15.753C0.395172 16.7715 1.22556 17.6019 2.24401 17.6019H15.7559C16.7743 17.6019 17.6018 16.7715 17.6018 15.753V2.24115C17.6018 1.22559 16.7743 0.395203 15.7559 0.395203ZM12.1653 6.26288H12.1681V6.26578H12.1653V6.26288ZM1.26607 6.70267H5.86647L5.84332 11.2655H1.26607V6.70267ZM5.86647 16.7368H2.24401C1.70296 16.7368 1.26317 16.297 1.26317 15.7559V12.1306H5.86647V16.7368ZM5.86647 5.83467H1.26607V2.24115C1.26607 1.70299 1.70585 1.2632 2.24691 1.2632H5.86936V5.83467H5.86647ZM11.2973 16.7368H6.73447V12.1103L11.2973 12.1335V16.7368ZM11.2741 11.2626L6.71132 11.2394L6.73157 6.67663L11.2973 6.69399L11.2741 11.2626ZM11.303 5.82888L6.73447 5.81152V1.2632H11.3233L11.303 5.82888ZM16.7338 15.7559C16.7338 16.297 16.294 16.7368 15.7559 16.7368H12.1653V12.1306H16.7338V15.7559ZM16.7338 11.2626H12.145L12.1653 6.69978L16.7338 6.72003V11.2626ZM16.7338 5.85492L12.171 5.83467L12.1913 1.2661H15.7559C16.294 1.2661 16.7338 1.70588 16.7338 2.24404V5.85492Z" fill="black"/>
</svg>
